<?xml version="1.0" encoding="UTF-8"?>
<svg id="Layer_1" data-name="Layer 1" xmlns="http://www.w3.org/2000/svg" viewBox="0 0 502.24 804.46">
  <path d="M177.94,792.08c-2.11,4.24-8.22,4.44-12.51,4.97-22.89,2.85-48.71,2.73-71.98,4.02-19.2,1.07-41.83,4.73-60.88,2.86-3.98-.39-9.3-.9-11.58-4.49-.21-1.21,2.94-4.21,3.99-4.84,4.48-2.7,22.42-4.7,28.59-5.42,40.56-4.71,84.47-5.35,124.37,2.89Z"/>
  <path d="M219.94,767.07c2.31,3.14-12.99,5.67-14.62,5.87-24.35,2.98-95.05,6.9-116.18.43-1.05-.32-6.23-2.34-6.23-2.85.73-3.35,2.68-5.05,5.75-6.24,3.66-1.43,12.41-1.98,16.75-2.25,27.36-1.74,59.61.38,87.05,2.03,9.28.56,18.37.06,27.48,3.02Z"/>
  <path d="M385.94,220.07c-1.5,1.39.11,1.81,1.48,1.99,6,.77,13.61.18,20,1.01,3.29.43,10.61,1.37,13.24,2.75,4.68,2.47,2.23,6.39.75,10.22-15.73,40.71-48.43,91.46-72.46,128.53s-52.38,83.26-80.51,116.49c-27.6,32.62-65,57.43-105.51,71,.83,2.28,4.61,2.3,6.78,2.7,12.69,2.35,25.63,1.97,38.43,5.57,18.56,5.21,6.42,8.3-3.54,13.89l-79.67,31.84c-2.74,2.83,5.59.93,6.42.98,12.54.82,25.59,1.71,37.79,5.28,22.28,6.53,2.85,10.12-7.84,11.59-18.12,2.49-36.48,3.14-54.56,6.44-19.7,3.59-24,2.66-32.3,21.7-16.2,37.16-26.48,86.21-51.1,117.9-3.17,4.09-12.49,15.56-16.71,17.36-3.34,1.43-6.74-3.5-6.64-6.66.18-5.83,5.56-22.95,7.45-29.61,12.56-44.28,31.53-87.6,45.43-131.53-7.55-14.87-21.1-24.87-32.33-36.57-2.69-2.81-17.07-17.41-13.6-20.9l11.51,2.98,31.48,20.01c-2.82-14.92-11.34-29.31-19.58-41.91-4.61-7.05-10.9-13.76-15.22-20.78-1.57-2.56-3.57-5.15-3.2-8.32l-1.98-.48c1.29-1.89,2.15-1.47,4.02-1.11,7.23,1.36,15.71,11.25,21.98,15.08l11.98,12.51c.22-11.49-2.49-22.99-3.03-34.45-2.35-49.33,10.71-107.44,30.57-152.51,1.82-4.12,6.47-17.66,11.81-15.93l1.57,1.49,20.08,39.4c1.21-24.31-2.56-49.33-1.04-73.55,1.06-16.88,11.71-29.5,20.83-43.17,66.03-99,126.05-169.16,234.54-223.46,27.94-13.99,94.04-45.16,123.7-36.34,18.86,5.61,15.73,20.75,13.82,36.85-5.41,45.56-29.56,101.31-51.31,141.69-2.78,5.17-7.02,14.4-10.55,18.45-5.73,6.6-11.04,5.04-18.51,7.49-11.47,3.77-22.56,11.44-34.47,14.04ZM371.95,163.05c-.5-3.28,2-4.63,4.3-6.18,13-8.73,36.12-16.65,51.05-23.95,4.84-2.36,16.48-7.21,20.01-9.99,6.59-5.2,20.34-48.68,23.13-58.87,2.25-8.23,8.86-32.32,7.5-39.5-.22-1.14-.34-2.02-1.64-2.36-5.5-1.83-32.69,8.49-39.63,11.1-18.02,6.78-38.54,15.56-55.61,24.39-9.39,4.86-34.38,18.46-39,27-7.69,14.2-11.27,33.32-20.14,47.37-2.78.32-3.95-3.21-4.05-5.51-.36-9.11,4.94-23.81,5.62-33.46.1-1.49.8-1.77-1.05-3-8.06,6.81-37.77,20.79-40.84,30.14-4.52,13.76-5.14,31.74-10.14,45.86-3.81,10.73-6.14,1.83-6.55-4.48-.64-9.83,1.68-21.77,3.03-31.53-1.73-.45-2,.71-3,1.49-6.25,4.83-23.42,21.83-24.76,29.24-.65,3.59.14,7.25-.24,10.76-2.87,26.38-6.01,52.91-13,78.51-7.09.87-5.27-12.35-5.03-17.54.68-14.89,3.62-30.09,5.04-44.96.54-5.65-.14-11.92,2.01-17.48-1.84-.49-2.02.74-2.97,1.57-3.77,3.28-10.06,11.22-13.54,15.41-6.07,7.31-27.71,34.18-29.26,41.74-1.55,7.54-.81,21.46-1.24,29.76-.1,1.93-.93,3.84-1.03,5.97-.43,8.94-.27,68.01-3.97,70.55-1.47-.86-3.43-.44-4.3-2.24-1.43-2.94-2.44-12.62-2.67-16.28-1.49-23.48,1.2-48.41,0-72.01-.06-1.13.65-2.75-.99-2.48-11.49,21.47-28.21,41.01-36.55,63.95-4.95,37.04,2.13,77.53-2.58,114.42-1.4,10.99-4.53,24.06-14.3,8.54l-25.57-53.91c-4.26,18.73-7.53,39.17-6,58.48,1.54,19.38,10.47,39.13,12.98,58.51-7.62-2.13-10.97-13.77-13.76-20.73-4.03-10.05-6.63-20.67-10.1-30.9-.44-1.31-.3-3.05-2.13-3.36-8.96,38.02-3.86,77.27,2.16,115.33.89,5.6,1.61,12.77,2.93,18.07.29,1.18.37,2.4,1.89,2.6,0-1.34,0-2.73.49-4.02C148.14,386.75,255.35,202.05,399.93,69.55c8.36-7.66,34.12-30.53,44.49-30.52,3.41,0-.42,5.14-1.48,6.54-22.59,29.61-51.71,57.41-75.97,86.03-101.99,120.27-189.02,259.43-251.51,404.49-6.92,16.05-15.34,34.97-20.53,51.47-1.77,5.62-3.92,10.33-2.97,16.52l56.99-32.51-6.32-3.67c-5.55-2.3-12.02-4-17.36-6.63s-14.33-6.75-6.82-12.19c6.67-4.84,25.16-10.95,33.86-15.13,18.87-9.08,37.34-18.48,54.55-30.45,6.73-4.68,12.97-10.3,20.08-14.43l-.5-1.99c-12.89,2.71-27.81,6.72-41.03,6.05-5.6-.28-19.77-3.67-8.46-8.54,18.37-7.9,50.62-7.56,67.33-18.67,6.65-4.42,28.69-30.22,31.66-37.35.19-.45.26-1.64-.48-1.48-23.93,11.94-52.99,21.12-79.47,25.53-5.39.9-11.37,2.54-16.04-1.06-.88-4.12,8.83-7.06,11.76-8.23,28.05-11.18,64.28-19.39,90.29-33.71,10.28-5.66,14.72-17.31,21.95-26.05-.35-1.18-2.16-.32-3.01-.01-22.6,8.09-46.53,17.34-70.61,20.39-4.12.52-15.7,2.31-17.93-1.86-1.78-4.6,5.32-6.24,8.6-7.47,31.75-11.94,69.82-20.63,99.28-37.72,13.81-8.01,21.98-28.74,32.67-40.34l-1.43-1.43c-14.21,5.08-28.73,9.88-43.35,13.66-8.98,2.32-34.51,9.34-42.26,6.83-9.5-3.07,4.52-8.97,7.78-10.31,20.81-8.58,44.46-13.64,65.78-22.22,19.46-7.83,27.77-11.33,39.9-29.1.82-1.21,1.85-2.29,1.57-3.92-28.69,9.67-59.02,19.51-88.97,24.52-3.67.61-27.56,5.57-25.98-1.92,3.89-3.44,10.38-5.83,15.42-7.64,22.98-8.21,47.96-14.13,71.3-21.7,7.53-2.44,33.15-9.76,37.95-13.56,1.55-1.22,3.26-5.77,5.28-7.21.23-.53-2.05-1.09-2.76-1.22-16.92-3.11-39.38.33-56.72-1.29-4.78-.45-10.26-1.69-13.5-5.48,1.72-2.05,3.8-3.54,6.09-4.89,13.94-8.22,33.21-14.54,48.25-21.75,13.76-6.61,27.58-13.44,40.58-21.42l21.05-41.44c-15.9,5.59-32.38,12.78-48.77,16.72-6.15,1.48-11.85,3.71-18.21,1.27Z"/>
</svg>