<?xml version="1.0" encoding="UTF-8"?>
<svg id="Layer_1" data-name="Layer 1" xmlns="http://www.w3.org/2000/svg" viewBox="0 0 524.55 833.63">
  <path d="M469.96,160.42c-2.09,2.02-4.23,3.03-4.5,6.07-1.47,16.42,26.02,45.09,35.08,58.98,17.75,27.2,20.31,49.25,21.96,81.02,4.2,80.65.81,165.98-.05,246.97-1.15,108.06,13.58,214.72-109.33,258.56-82.94,29.58-235.83,29.98-316.57-6.16C32.1,777.02,4.9,728.36,1.95,658.55l.08-240.03c-.17-54.02-9.64-136.74,13.77-185.19,8.79-18.18,34.57-43.14,36.88-61.08,1.16-9.02-1.87-6.41-6.76-10.71-7.54-6.63-9.89-14.09-9-24.07,1-11.28,9.03-15.68,15.06-23.96.02-3.33-12.77-6.81-7.06-16.03,1.77-2.85,6.82-4.76,7.36-7.61.61-3.2-.54-10.3-.38-14.4.37-9.48-.31-18.21,0-27,.26-7.32,2.02-13.49,7.55-18.44C86.32,6.01,184.69,2.32,221.32,1.05c59.48-2.07,131.04-2.02,189.5,9.23,15.74,3.03,55.38,11.94,58.48,30.47,1.13,6.76-1.58,14.84-.74,19.7.5,2.94,5.71,9.89,7.03,14.01,3.66,11.46,3.2,22.67-4.98,31.91,7.22,8.19,17.76,12.59,17.99,25.14.24,13.02-10.4,20.95-18.64,28.91ZM439.32,47.77c.51-.47.73-1.58,1-2.28-.8-5.49-38.11-12.98-44.52-14.17-75.57-14.05-180.28-13.17-256.27-1.15-6.89,1.09-57.49,10.62-57.59,16.33,4.26,3.67,11.57,5.39,17.14,6.82,57.81,14.86,138.31,13.08,198.09,10.63,38.71-1.58,80.51-3.57,118.63-10.25,4.25-.74,21.17-3.8,23.52-5.94ZM444.56,68.01c-31.93,9.54-65.15,15.03-98.4,17.99-65.19,5.8-144.76,5.48-209.65-3.14-19.24-2.55-38.04-7.23-57.06-10.89l-2.38,1.68c-3.28,18.92,16.12,27.23,30.82,31.87,43.02,13.59,89.06,12.35,133.31,13.49,5.12.13,11.17-.57,16.06,0,11.2,1.29,6,6.15-.81,9.19-20.75,9.26-76.41,7.76-100.09,5.8-28.29-2.34-56.61-7.74-83.11-17.83-14.55,11.14,3.14,21.06,13.69,25.31,32.09,12.94,71.13,13.8,105.37,15.53,59.98,3.02,124.16,2.55,183.66-7.18,18.27-2.99,59.02-11.07,73.53-21.4,2.52-1.79,10.03-8.77,2.72-8.14-6.35.55-22.36,7.55-30.21,9.63-14.7,3.88-37.92,9.13-52.86,8.06-5.94-.43-14.24-1.5-8.75-8.98,23.11-6.91,48.96-10.43,70.85-20.83,5.49-2.6,13.12-6,15.31-12.17-5.92-.48-11.35,3.19-16.76,4.71-20.18,5.66-51.06,12.07-71.63,8.26-1.21-.22-4.71-2.45-4.06-3.98,2.51-3.3,6.07-4.04,9.77-5.26,15.37-5.07,73.56-14.04,79.92-28,.57-1.25.98-2.32.76-3.73ZM440.56,168.01c-1.07-.94-23.79,5.87-27.77,6.69-64.08,13.23-130.34,13.1-195.46,11.27-33.43-.94-66.75-1.7-99.81-7.09-14.96-2.44-29.59-7.23-44.59-8.85.67,1.32,3.37,3.02,4.67,3.81,46.77,28.42,131.62,27.63,184.6,26.14,6.82-.19,13.7.22,20.52.05-.88,7.11-13.57,10.47-19.73,11.74-41.75,8.55-105.34,3.26-146.92-6.42-6.05-1.41-38.01-11.59-40.4-11.16-3.69.66-16.65,18.41-19.53,22.53-16.63,23.78-25.6,45.24-27.2,74.77-.08,95.99-.21,192.13,1.07,287.98.65,48.66-6.09,109.92,20.53,152.48,40.73,65.13,146.78,66.23,214.67,66.04,99.67-.28,211.7-7.04,225.31-129.47,4.8-43.14,2.57-92.47,3.08-136.02.87-73.88,4.01-152.38.96-226.02-.87-21.1-3.74-44.6-13.51-63.48-1.73-3.33-7.97-13.64-11.02-14.97-2.29-1-1.1,1.29-1.04,2.06,1.11,13.78-14.98,18.24-23.98,8.9-2.44-5.74,13.8-9.53,15.99-14.02,2.15-4.41,1.11-7.72-3.51-9.48-2.98-1.13-6.11,2.58-8.91,4.04-4.88,2.54-23.79,13.6-27.52,7.5l-.32-3.31c.76-3.59,29.72-20.41,27.82-22.7l-4.01-.6c-11.31,6.33-23.23,13.19-35.43,17.61-9.85,3.57-22.36,8.35-32.39,3.89-.34-1.82.03-4.18,1.2-5.62,4.84-5.94,28.57-11.38,34.67-18.27-13.12,3.15-26.41,6.53-39.75,8.7-9.87,1.6-37.06,6.01-45.08,1.71-6.69-3.58-.16-7.17,4.13-8.7,31.01-11.06,78.1-12.38,106.7-29.23.59-.35,3.78-.89,1.96-2.48Z"/>
  <path d="M459.81,668.73c-3.31-3.07-1.19-6.92-1.21-10.19-.46-52.08,3.36-104.83,3.99-157,.88-72.8-1.16-145.85.46-218.54,19.67-13.51,16.92,21.45,17.5,32.49,2.15,41.26.34,82.75-.05,123.97-.61,64.42,3.03,139.87-7.24,202.75-.87,5.33-4.18,26.34-9.41,27.64-1.35.21-3.04-.21-4.02-1.12Z"/>
  <path d="M134.69,755.18c2.25,8.99-13.48,8.22-19.29,7.8-14.82-1.05-32.84-11.35-41.98-22.97-5.44-6.91-7.05-11.6-2.31-19.33,15.93-25.96,97.93-37.72,127.2-40.68,23.54-2.38,49.32-3.76,72.96-3.05,12.22.37,57.03,2.26,65.33,8.61,4.63,3.54,3.9,7.16-1.22,9.64-10.64,5.15-34.94.94-47.12.75-53.48-.84-122.07,2.17-172.89,19.02-15.83,5.25-38.08,13.34-13.16,28.21,10.12,6.04,22.13,6.92,32.49,11.99Z"/>
  <path d="M56.06,676.87c-.44-.27-3.44-8.31-3.83-9.65-4.05-13.96-3.58-29.4-4.24-43.76-2.52-55.36-1.43-111.7.95-166.97.37-8.56-.3-39.57,4.95-45.04,6.55-6.82,7.8,6.86,8.09,11.01,1.27,17.89-.95,36.24-1.07,53.98-.29,43.96-.72,88.16-.02,132.11.3,18.82,3.76,42.69,2.09,61-.3,3.25-2.72,9.92-6.92,7.32Z"/>
  <path d="M90.8,223.1c.79.56,1,3.64.69,4.9-1.38,5.58-9.01,16.98-11.75,23.33-8.89,20.61-13.14,41.24-16.67,63.32-1.48,9.26-1.46,26.44-4.63,34.37-1.05,2.63-2.72,4.67-5.8,3.85-2.69-.77-3.43-5.85-3.69-8.38-3.06-30.63,1.65-85.31,22.99-108.96,2.45-2.72,15.48-14.82,18.85-12.43Z"/>
  <path d="M445.21,744.65c-3.1,2.97-21.17,16.01-24.53,11.25.1-7.28,7.53-12.15,10.39-18.91,3.34-7.89,3.99-16.03-3.71-21.24-4.64-3.14-17.56-5.98-19.83-9.17-4.4-6.18,2.3-8.5,7.57-8.58,12.3-.17,38.71,9.34,40.85,23.2,1.26,8.2-5.05,18.01-10.73,23.45Z"/>
  <path d="M473.52,246.01c.73,6.74,6.51,13.98-.03,19.45-6.09,5.09-11.34,1.94-12.5-5.4-1.36-8.64.84-5.57,5.05-9.05,2.42-2.01,3.92-5.54,7.48-5Z"/>
</svg>