<?xml version="1.0" encoding="UTF-8"?>
<svg id="Layer_1" data-name="Layer 1" xmlns="http://www.w3.org/2000/svg" viewBox="0 0 630.71 692.41">
  <path d="M414.98,150.98c27.75,28.59,55.85,57.4,84.13,85.39,7.87,7.79,16.88,15.55,24.88,22.89,46.07-42.37,123.78,5.66,103.36,66.3-13.55,40.24-62.34,58.03-98.74,36.23l-152.71,140.03c4.02,8.02,8.41,16.2,9.45,25.29.85,7.45-.06,14.86-.3,22.27l111.08,50.79c15.19-20.94,36.11-33.71,62.89-30.72,68.47,7.64,71.24,107.08,5.63,121.42-43.45,9.5-79.47-26.15-75.2-69.36l-109.83-49.75c-1.04-.51-1.96-.53-3,.03-.97.52-8.47,9.91-10.99,12.07-27.68,23.64-67.64,19.44-90.52-8.5-16.35-19.96-18.04-51.59-5.93-74.03l-168.59-159.54c-5.78,1.16-10.55,5.31-16.75,7.27-63.43,19.98-110.81-57.47-66.54-104.6,20.25-21.56,51.31-24.13,76.63-9.93,2.87,1.61,10.25,8.32,12.65,7.34,55.69-45.48,110.78-91.72,163.15-141.01l.48-1.57c-20.81-31.11-13.23-74.13,20.75-92.12,48.81-25.84,105.39,22.64,88.68,74.68-2.48,7.72-6.67,13.53-9.87,20.73,14.18,16.91,29.84,32.57,45.2,48.4ZM350.61,116.34c-15.67,9.14-34.3,10.49-51.51,5.03-3.3-1.04-11-5.68-13.43-4.57-53.35,48.88-108.59,95.61-164.11,142-1.9,2.9,2.78,10.32,4.1,14,1.12,3.1,1.47,6.42,2.44,9.56l373.39,14.85,6.69-21.84-157.57-159.03ZM502.54,321.43l-375.8-17.97-9.95,22.23,167.86,158.18c2.84,1.29,8.6-4.75,11.65-6.36,19.76-10.44,47.86-7.82,64.83,6.87,16.61-13.24,32.81-27.21,48.51-41.53,22.54-20.55,44.76-42.1,66.51-63.49,4.39-4.32,35.31-33.99,35.15-36.52-4.15-6.49-7.48-13.73-8.76-21.41Z"/>
</svg>