<?xml version="1.0" encoding="UTF-8"?>
<svg id="Layer_1" data-name="Layer 1" xmlns="http://www.w3.org/2000/svg" viewBox="0 0 830.01 880.28">
  <path d="M811.35,127.49l-8.24,166.26c-.95,4.64-2.22,9.84-5.85,13.15-4.3,3.92-10.3,4.09-14.89,7.03.18,1.23.69,2.35.57,3.63-11.71,134.24-20.49,268.51-33.29,402.51-1.83,19.16.09,40.18-13.02,56.19s-46.8,22.41-66.6,27.4c-93.46,23.57-189.62,45.53-283.81,66.19-46.3,10.15-64.5,18.54-109.69-3.34-27.16-13.14-56.26-30.34-83-45-32.09-17.59-67.78-36.21-98.64-55.36-23.14-14.36-35.78-25.65-37.68-54.32-4.59-69.19-5.4-140.63-7.97-210.03-2.59-69.63-5.15-139.16-7.02-208.75-7.81-6.79-17.28-7.16-18.93-19.3-1.08-53.96-.23-108.16-3.13-161.96-.19-3.61,1.61-8.32-.45-12.46-7.48-4.98-16.93-5.69-19.06-15.93-1.85-8.91.16-14.55,7.08-20.04,8.09-6.42,28.13-8.19,39.08-9.92,56.68-8.96,113.95-15.16,170.77-23.23C290.04,19.95,367.87,3.54,440.72.37c54.39-2.37,90.38,6.91,141.49,21.49,78.03,22.26,155.61,47.64,232.89,72.11,22.11,11.42,18.62,26.31-3.75,33.52ZM790.21,107.37c-37.77-11.38-76-21.4-113.78-32.73-54.51-16.34-112.64-38.73-167.98-50.02-50.46-10.29-133.11,3.66-185.66,10.76-78.96,10.67-157.9,21.65-236.95,32.08-19.57,2.58-39.3,5.27-58.62,8.89.27,1.7,1.98,1.75,3.22,2.27,32.56,13.49,69.94,22.97,103.55,34.45,74.08,25.31,143.11,58.02,223.72,52.27,28.01-2,55.41-7.24,83.14-10.87,108.35-14.18,216.57-28.99,324.88-43.12,7.56-.99,15.43-1.12,23.01-2.01,1.41-.16,2.89-.58,1.48-1.99ZM793.2,130.36c-58.59,9.51-117.53,17.07-176.37,25.12-57.28,7.84-114.76,15.32-172.13,22.77-70.17,9.11-122.68,21.22-193.52,1.64-62.66-17.32-127.76-44.76-189.44-66.56-3.04-1.07-20.2-7.26-21.52-5.97,1.99,20.23,1.4,40.15,2.01,60.48.06,1.9.97,3.84,1.03,5.97.87,31.35.64,62.73,1.95,94.05.43,2.24,3.37,3.56,5.33,4.67,9.04,5.1,22.79,10.14,32.71,14.29,55.97,23.41,116.74,47.69,173.72,68.28,39,14.09,61.3,15.67,102.62,10.12l172.63-29.87,2.06-110.44c.25-1.59.67-2.96,1.99-4.01,5.63-4.48,26.13-4.94,34.01-6.18,9.08-1.43,19.38-4.9,28.63-5.04,1.13-.02,2.18.3,3.17.8.03,3.47,1.51,10.45-2.58,11.65l-55.07,7.44-.21,102.77,228.24-39.25,9.78-3.22,1.84-7.16,9.13-152.37ZM532.2,356.36c-15.77,1.75-31.18,5.96-46.79,8.7-42.34,7.43-88.39,16.32-130.84,21.16-26.59,3.03-58.89,4.17-84.37-4.37-41.05-13.76-83.67-33.71-124.32-49.68-27.76-10.9-55.71-21.53-83.67-31.82,1.23,40.89,2.42,81.61,3.95,122.53,3.1,83.17,7.4,167.35,11.09,250.92,1.03,23.3-4.7,54.73,19.05,67.95,61.97,32.97,123.86,71.45,186.89,102.11,38.25,18.61,45.25,15.76,86.06,7.02,101.79-21.8,207.27-46.27,308.19-71.81,16.39-4.15,39.1-7,47.17-23.83,6.62-13.8,5.25-39.64,6.61-55.39,10.13-117.89,18.6-235.97,27-354,.67-9.45,2.1-19.07,2.99-28.5l-216.95,37.09-.05,43.91,51.55-9.06c4.31-.81,5.5,8.19,2.88,9.95-1.75,1.18-6.7,2.41-9.01,3.03-6.31,1.68-41.94,7.77-43.92,10.1-2.9,30.65-.9,62.39-1.45,93.51l-.04,37.46,47.52-10.06c5.92.1,6.66,8.82.47,11.56-9.51,4.21-32.17,7.66-43.74,10.26-1.73.39-3.52.25-5.26.25l-1,139.98,47.52-8.99,4.23,1.26,1.09,7.6-51.35,13.14c-1.98,18.23.78,37.14-.51,55.5-.11,1.58-1.16,10.1-1.45,10.55-1.32,2.05-9.66,3.28-10.34-.74.48-5.95-1-12.1-1.24-17.76-4.29-101.37,4.63-204.67.98-306l1.06-93.53Z"/>
  <g>
    <path d="M312.97,402.6c.94.83,2.16,7.36,2.45,9.14,1.81,130.29,1.9,260.69,1.83,391.16,1.16,8.06-8.97,12.34-10.83,3.75-1.82-8.41-.59-19.32-.77-27.79-2.56-114.71-3.32-232.66-.82-347.83.13-5.86-1.69-23.42,1.46-28.08,1.42-2.09,5.22-1.62,6.67-.35Z"/>
    <path d="M314.97,217.57c5.1,5.39,3.12,49.34,3.2,59.33.13,16.32,2.2,40.34.12,56.02-.22,1.68-2.85,1.79-2.13,4.35l-6.93.09c-.51-4.93-1.8-10.58-2.05-15.46-1.24-23.61-.11-50.13.66-73.87.1-2.96-2.68-7.18,1.39-8.17l-1.9-.97c.28-7.27-.1-14.2,2.06-21.36l5.59.04Z"/>
  </g>
</svg>