<svg xmlns="http://www.w3.org/2000/svg" viewBox="0 0 278.67773810082406 152.59382983818384" role="img" aria-label="Northeast Larder">
  <g transform="translate(10 72.96611038480893) rotate(0 129.33886905041203 23.802295780094397)">
    <path fill="#1e1e1e" d="M -0.42,-1.50 Q -0.42,-1.50 2.29,-2.23 5.01,-2.96 8.79,-3.59 12.58,-4.23 17.80,-4.67 23.02,-5.11 28.74,-5.30 34.46,-5.48 39.79,-5.42 45.12,-5.37 49.77,-4.61 54.41,-3.85 58.29,-2.13 62.17,-0.41 65.30,1.93 68.43,4.28 71.02,7.20 73.61,10.12 75.81,13.68 78.01,17.24 79.79,21.06 81.58,24.87 82.97,28.41 84.35,31.94 85.61,34.97 86.87,37.99 88.35,40.55 89.83,43.11 91.72,44.94 93.62,46.77 96.01,47.79 98.41,48.81 101.67,49.33 104.93,49.85 109.94,49.53 114.95,49.21 122.38,47.26 129.80,45.32 139.57,41.74 149.34,38.16 159.85,34.02 170.36,29.87 180.55,25.88 190.73,21.89 200.28,18.38 209.82,14.87 217.74,12.50 225.65,10.14 231.52,8.97 237.39,7.80 241.53,7.35 245.67,6.90 248.66,6.99 251.64,7.09 253.59,7.52 255.54,7.96 257.51,8.87 259.47,9.78 259.68,9.95 259.89,10.11 260.04,10.34 260.19,10.56 260.26,10.82 260.33,11.08 260.31,11.35 260.29,11.62 260.19,11.87 260.09,12.12 259.91,12.32 259.74,12.52 259.50,12.66 259.27,12.79 259.01,12.85 258.74,12.90 258.48,12.87 258.21,12.84 257.97,12.72 257.72,12.61 257.53,12.42 257.34,12.23 257.21,12.00 257.09,11.76 257.05,11.49 257.01,11.22 257.06,10.96 257.10,10.69 257.23,10.46 257.36,10.22 257.56,10.04 257.75,9.85 258.00,9.74 258.25,9.63 258.51,9.61 258.78,9.58 259.04,9.64 259.31,9.70 259.53,9.84 259.76,9.99 259.94,10.19 260.11,10.40 260.20,10.65 260.30,10.90 260.31,11.17 260.33,11.44 260.25,11.70 260.18,11.96 260.02,12.18 259.87,12.40 259.65,12.56 259.44,12.72 259.18,12.80 258.92,12.89 258.65,12.88 258.39,12.88 258.13,12.79 257.88,12.70 257.88,12.70 257.88,12.70 256.34,11.71 254.80,10.72 253.17,10.21 251.54,9.71 248.75,9.61 245.95,9.51 241.93,9.95 237.90,10.38 232.15,11.52 226.41,12.65 218.57,14.99 210.73,17.33 201.21,20.83 191.69,24.33 181.51,28.32 171.32,32.31 160.78,36.47 150.24,40.63 140.35,44.25 130.47,47.86 122.79,49.85 115.12,51.83 109.82,52.14 104.52,52.45 100.94,51.83 97.36,51.22 94.60,49.95 91.83,48.68 89.70,46.56 87.57,44.44 86.00,41.72 84.44,39.00 83.17,35.95 81.90,32.90 80.54,29.45 79.18,25.99 77.47,22.31 75.76,18.62 73.69,15.25 71.62,11.87 69.22,9.13 66.82,6.40 63.94,4.20 61.06,2.01 57.51,0.40 53.96,-1.19 49.52,-1.92 45.09,-2.64 39.82,-2.68 34.56,-2.71 28.91,-2.51 23.27,-2.31 18.17,-1.84 13.07,-1.38 9.44,-0.73 5.82,-0.08 3.12,0.70 0.42,1.50 0.23,1.53 0.05,1.56 -0.13,1.54 -0.32,1.52 -0.50,1.46 -0.68,1.40 -0.83,1.30 -0.99,1.20 -1.12,1.06 -1.25,0.92 -1.34,0.76 -1.44,0.60 -1.49,0.41 -1.54,0.23 -1.54,0.05 -1.55,-0.13 -1.51,-0.32 -1.47,-0.50 -1.39,-0.67 -1.31,-0.84 -1.19,-0.99 -1.07,-1.13 -0.92,-1.24 -0.77,-1.35 -0.59,-1.43 -0.42,-1.50 -0.42,-1.50 L -0.42,-1.50 Z"/>
  </g>
  <g transform="translate(61.965606984581996 142.59382983818384) rotate(0 56.410366545748275 -66.29691491909192)">
    <path fill="#1e1e1e" d="M -1.56,0 Q -1.56,0 -1.52,-5.34 -1.49,-10.68 -1.46,-17.62 -1.44,-24.55 -1.42,-32.78 -1.40,-41.01 -1.39,-50.34 -1.38,-59.68 -1.29,-68.73 -1.21,-77.78 -0.82,-85.70 -0.43,-93.61 0.18,-99.74 0.81,-105.86 1.48,-110.44 2.14,-115.01 2.81,-118.52 3.48,-122.04 4.04,-124.49 4.60,-126.94 4.88,-128.46 5.15,-129.99 5.35,-131.31 5.54,-132.64 6.70,-133.57 7.85,-134.50 10.84,-134.22 13.84,-133.93 17.09,-132.98 20.35,-132.02 25.12,-130.95 29.88,-129.87 35.87,-128.97 41.86,-128.06 47.98,-127.43 54.09,-126.79 59.37,-126.46 64.64,-126.13 68.90,-125.98 73.15,-125.83 76.37,-125.85 79.60,-125.87 82.02,-126.08 84.45,-126.29 86.51,-126.52 88.57,-126.75 90.40,-126.92 92.23,-127.09 93.85,-127.21 95.46,-127.34 97.03,-127.20 98.61,-127.07 100.31,-126.02 102.00,-124.98 103.40,-122.89 104.80,-120.80 105.93,-117.86 107.05,-114.92 108.07,-110.95 109.08,-106.98 109.98,-102.06 110.89,-97.15 111.67,-90.67 112.45,-84.20 112.95,-76.52 113.45,-68.85 113.66,-61.04 113.87,-53.23 113.95,-46.48 114.04,-39.73 113.96,-34.69 113.88,-29.65 113.61,-25.92 113.35,-22.20 113.11,-19.79 112.87,-17.39 112.86,-15.88 112.85,-14.36 112.99,-12.60 113.12,-10.85 113.68,-8.60 114.23,-6.34 114.29,-5.98 114.34,-5.61 114.28,-5.24 114.21,-4.88 114.03,-4.55 113.85,-4.23 113.58,-3.98 113.31,-3.72 112.97,-3.57 112.63,-3.42 112.26,-3.39 111.89,-3.35 111.53,-3.44 111.17,-3.52 110.85,-3.72 110.54,-3.91 110.30,-4.20 110.07,-4.49 109.93,-4.83 109.80,-5.18 109.79,-5.55 109.77,-5.92 109.87,-6.28 109.98,-6.64 110.19,-6.94 110.40,-7.24 110.70,-7.46 111.00,-7.68 111.36,-7.80 111.71,-7.91 112.08,-7.91 112.45,-7.90 112.80,-7.78 113.15,-7.65 113.44,-7.42 113.74,-7.20 113.94,-6.89 114.14,-6.58 114.24,-6.22 114.33,-5.86 114.31,-5.49 114.28,-5.12 114.14,-4.77 114.00,-4.43 113.75,-4.15 113.51,-3.87 113.19,-3.69 112.87,-3.50 112.50,-3.42 112.14,-3.35 111.77,-3.39 111.40,-3.44 111.07,-3.60 110.73,-3.76 110.47,-4.02 110.20,-4.28 110.03,-4.61 109.86,-4.94 109.86,-4.94 109.86,-4.94 109.44,-6.73 109.02,-8.51 109.13,-9.73 109.23,-10.95 109.51,-12.77 109.78,-14.59 110.00,-16.12 110.22,-17.65 110.45,-20.02 110.68,-22.38 110.93,-26.04 111.18,-29.69 111.25,-34.69 111.32,-39.69 111.22,-46.43 111.12,-53.16 110.89,-60.91 110.66,-68.66 110.13,-76.25 109.60,-83.84 108.79,-90.22 107.98,-96.60 107.04,-101.39 106.10,-106.19 105.06,-109.96 104.03,-113.72 102.97,-116.28 101.91,-118.85 100.83,-120.39 99.75,-121.93 98.84,-122.73 97.93,-123.53 96.74,-123.78 95.55,-124.03 93.98,-124.07 92.41,-124.10 90.64,-124.06 88.88,-124.01 86.79,-123.78 84.70,-123.55 82.16,-123.30 79.63,-123.06 76.35,-123.01 73.07,-122.96 68.77,-123.07 64.48,-123.17 59.13,-123.44 53.79,-123.71 47.60,-124.27 41.41,-124.83 35.29,-125.63 29.16,-126.44 24.28,-127.38 19.39,-128.32 16.24,-129.02 13.08,-129.73 11.07,-130.55 9.06,-131.38 8.59,-130.31 8.12,-129.24 7.65,-127.79 7.18,-126.35 6.64,-123.94 6.09,-121.54 5.43,-118.09 4.78,-114.63 4.13,-110.11 3.48,-105.59 2.86,-99.54 2.25,-93.48 1.88,-85.62 1.51,-77.76 1.44,-68.72 1.38,-59.68 1.39,-50.34 1.40,-41.01 1.42,-32.78 1.44,-24.55 1.46,-17.62 1.49,-10.68 1.52,-5.34 1.56,0 1.53,0.18 1.51,0.37 1.45,0.54 1.38,0.72 1.27,0.88 1.16,1.03 1.02,1.16 0.88,1.28 0.72,1.37 0.55,1.46 0.37,1.50 0.18,1.55 -0.00,1.55 -0.18,1.55 -0.37,1.50 -0.55,1.46 -0.72,1.37 -0.88,1.28 -1.02,1.16 -1.16,1.03 -1.27,0.88 -1.38,0.72 -1.45,0.54 -1.51,0.37 -1.53,0.18 -1.56,-0.00 -1.56,-0.00 L -1.56,0 Z"/>
  </g>
  <g transform="translate(151.2020950672037 69.5847433528518) rotate(0 5.887370822930961 3.400327968584932)">
    <path fill="#1e1e1e" d="M 2.58,0 Q 2.58,0 2.59,1.29 2.59,2.59 3.55,3.18 4.50,3.77 5.70,4.08 6.90,4.40 7.95,4.62 9.00,4.84 10.13,5.01 11.25,5.17 9.95,5.97 8.65,6.76 7.69,7.27 6.73,7.79 6.26,6.30 5.78,4.80 4.85,3.68 3.92,2.56 4.59,1.66 5.27,0.75 6.26,1.62 7.25,2.48 6.57,3.46 5.89,4.43 5.70,5.66 5.51,6.89 4.63,5.68 3.76,4.47 4.79,3.69 5.82,2.92 6.72,2.34 7.61,1.76 6.44,1.96 5.27,2.17 2.05,2.75 -1.16,3.32 -1.66,3.05 -2.17,2.78 -2.55,2.36 -2.94,1.94 -3.17,1.42 -3.41,0.90 -3.46,0.33 -3.52,-0.23 -3.39,-0.79 -3.26,-1.34 -2.96,-1.83 -2.65,-2.31 -2.22,-2.68 -1.78,-3.04 -1.24,-3.25 -0.71,-3.45 -0.14,-3.47 0.42,-3.50 0.97,-3.34 1.52,-3.18 1.99,-2.85 2.45,-2.53 2.79,-2.07 3.13,-1.61 3.31,-1.06 3.48,-0.52 3.48,0.04 3.47,0.61 3.28,1.15 3.09,1.69 2.74,2.14 2.39,2.59 1.91,2.90 1.44,3.22 0.88,3.36 0.33,3.51 -0.23,3.47 -0.80,3.43 -1.33,3.21 -1.85,2.99 -2.28,2.62 -2.71,2.24 -3.00,1.75 -3.29,1.26 -3.40,0.70 -3.52,0.14 -3.45,-0.42 -3.38,-0.98 -3.14,-1.50 -2.89,-2.01 -2.49,-2.42 -2.09,-2.83 -1.59,-3.09 -1.08,-3.35 -0.51,-3.44 0.04,-3.52 0.60,-3.42 1.16,-3.32 1.16,-3.32 1.16,-3.32 1.23,-3.44 1.29,-3.55 3.28,-4.37 5.26,-5.19 6.69,-5.16 8.12,-5.13 9.61,-4.76 11.10,-4.38 11.99,-3.53 12.89,-2.68 13.35,-0.94 13.81,0.78 13.79,2.12 13.78,3.45 13.25,5.13 12.72,6.81 11.55,7.75 10.38,8.70 9.19,9.38 8.01,10.06 6.25,10.73 4.50,11.39 2.54,11.26 0.58,11.12 -0.19,10.23 -0.96,9.33 -1.41,8.31 -1.86,7.29 -1.81,6.09 -1.75,4.88 -1.49,3.75 -1.23,2.61 -0.70,1.50 -0.16,0.39 0.65,-0.65 1.46,-1.70 2.71,-2.64 3.96,-3.57 5.48,-4.05 6.99,-4.54 8.34,-4.41 9.70,-4.29 10.60,-3.61 11.50,-2.94 12.00,-1.40 12.51,0.13 12.32,1.31 12.13,2.49 11.51,3.90 10.88,5.31 9.82,6.57 8.77,7.83 7.49,8.47 6.21,9.11 4.73,9.31 3.25,9.51 1.82,8.26 0.39,7.01 0.75,4.93 1.11,2.84 2.03,2.28 2.96,1.72 4.01,1.50 5.05,1.29 6.55,1.18 8.04,1.07 9.61,1.14 11.18,1.22 12.68,2.12 14.18,3.02 14.54,4.30 14.90,5.59 14.80,6.69 14.70,7.79 14.16,8.85 13.62,9.90 11.86,10.44 10.11,10.98 8.93,10.69 7.76,10.40 6.65,10.15 5.54,9.89 4.21,9.58 2.88,9.26 1.53,8.85 0.17,8.43 -1.28,6.61 -2.74,4.79 -2.66,3.69 -2.59,2.59 -2.59,1.29 -2.58,0 -2.54,-0.30 -2.50,-0.61 -2.39,-0.90 -2.28,-1.20 -2.11,-1.45 -1.93,-1.71 -1.70,-1.91 -1.46,-2.12 -1.19,-2.27 -0.91,-2.41 -0.61,-2.48 -0.31,-2.56 0.00,-2.56 0.31,-2.56 0.61,-2.48 0.91,-2.41 1.19,-2.27 1.46,-2.12 1.70,-1.91 1.93,-1.71 2.11,-1.45 2.28,-1.20 2.39,-0.90 2.50,-0.61 2.54,-0.30 2.58,0.00 2.58,0.00 L 2.58,0 Z"/>
  </g>
</svg>
