<?xml version="1.0" encoding="UTF-8"?>
<svg id="Layer_1" data-name="Layer 1" xmlns="http://www.w3.org/2000/svg" viewBox="0 0 652.1 835.1">
  <path d="M2.47,595.06c.31-.49,1.91.24,1.76-.68l-2.1-1.93c.02-85.38.27-170.75.12-256.13-.02-12.1-1.15-24.21.88-36.02l-1.96-.97c3.16-74.04-3.8-152.46.01-226.99C5.65-15.28,85.98,4.95,149.77,3.91c113.92-1.84,227.82-2.9,342-3,29.71-.03,60.45-2.03,89.93-.02,80.41,5.49,67.45,67.21,68.48,127.55,3.34,196.91.36,393.69.99,591,.09,28.56,5.49,61.58-10.93,86.97-22.67,35.04-72.37,26.79-108.57,27.43-149.09,2.64-298.71.16-448,1.08-46.58-1.78-76.26-14.56-81.51-65.49l.3-174.37ZM625.2,375.86c.28-.35-2.63-2.9-2.04-4.42.91-58.32-.55-116.85-.98-175.02-.32-42.91,3.86-95.53-.97-137.03-3.17-27.23-19.91-31.32-44.45-32.55-88.96-4.46-180.83,4.35-270.08,1-68.56.99-137.39,2.54-205.92,4.08-33.8.76-66.79-10.56-69.59,34.41-5.2,83.52,4.57,172.14-.85,255.95,3.43,140.38-1.52,281.56.86,422.16.18,10.46-.43,24.69,1.29,34.68,4.55,26.35,31.7,24.09,52.2,25.8,169.5-1.04,339.23,1.88,508.59-1.49,36.35-6.37,28.23-36.34,28.91-64.09,1.9-77.84.83-156.1.96-234.04l2.1-1.92-2.1-1.93v-91.14c3.35-2.68.31-6.69.1-10.94-.15-3.12-.4-22.32.27-23.27.29-.41,1.61-.13,1.7-.24Z"/>
  <path d="M325.04,485.13l211.66-.23c21.01,1.53,19.07,28.44-.98,29.99h-257.01c-18.07-2.03-18.68-26.91-1.02-29.03,14.79-1.78,32.42,1.99,47.36-.73Z"/>
  <g>
    <g>
      <path d="M120.91,498.19c8.15,10.32,14.43,25.07,22.47,35.02,1.06,1.31,1.71,3.04,3.82,2.67.35-1.72,1.06-3.83,2.04-5.26,18.14-26.42,36.57-53.43,55.92-79.29,10.71-9.04,26.99-2.34,23.82,12.83-.45,2.16-3.13,6.47-4.35,8.64-18.7,33.15-46.63,64.77-66.01,97.99-6.97,8.22-16.59,11.29-25.42,3.59l-36.49-59.52c-6.64-17.88,10.1-24.98,24.19-16.69Z"/>
      <path d="M203.67,608.31c10.51-11.32,29.59-4.7,26.32,10.86-1.65,7.86-27.32,44.19-33.55,53.44-9.67,14.36-26.44,41.96-37.68,53.32-11.02,11.13-22.93,8.64-31.56-3.51-9.26-13.04-25.78-39.35-32.49-53.51-5.1-10.76-2.05-21.46,11.06-22.05,7.78-.35,11.18,4.13,15.26,9.72,8.35,11.43,14.3,24.84,22.69,36.29l59.95-84.56Z"/>
    </g>
    <g>
      <path d="M214,106.1c13.22-1.03,20.79,12.48,13.4,23.47l-70.2,106.8c-11.43,11.7-20.16,6.84-28.01-4.95-9.01-13.53-23.82-36.29-30.49-50.51-3.18-6.78-6.45-14.46,1.17-19.88,20.91-14.85,33.62,23.6,42.85,35.83,10.27-14.44,19.79-29.48,30.09-43.89,6-8.4,28.4-41.25,35.05-44.96,1.39-.78,4.61-1.8,6.15-1.92Z"/>
      <path d="M211.92,278.1c12.81-2.91,22.92,8.07,16.11,20.1l-71.3,104.7c-12.33,13.91-21.21,11.2-30.93-3.1-8.43-12.4-23.62-37.88-29.76-51.24-3.16-6.88-5.18-14.03,2.21-19.14,8.25-5.7,16.5-2.95,22.4,4.53,3.35,4.26,20.97,34.96,23.07,34.91,9.07-14.1,18.38-28.23,28.09-41.89,8.73-12.28,20.47-30.12,30.01-40.99,2.27-2.59,6.74-7.13,10.11-7.89Z"/>
    </g>
  </g>
  <g>
    <path d="M359.01,316.18c59.18-.65,118.47-.12,177.71-.3,9.57,1.41,13.68,6.88,12.52,16.53-1.88,15.52-23.34,11.03-34.45,11.44-51.56,1.92-103.6,1.01-155.06,1.59-25.54-1.62-54.97,3.94-79.99,1.43-8.13-.82-14.06-4.16-15.28-12.74-1.71-12.09,7.82-16.54,18.23-17.29,23.69-1.7,52.1-.4,76.33-.67Z"/>
    <path d="M268.56,399.53c-10.35-9.4-2.85-24.34,10.16-25.64,44.36-4.44,95.91,3.26,141.03.03,10.64-.84,23.29-2.03,33.94-1.03,12.34,1.16,20.58,8.84,14.39,21.36-3.38,6.84-9.25,8-16.39,8.61-39.68,3.38-88.25-.22-129.03-.04-10.28.05-20.5,1.48-31.02,1.08-6.19-.23-18.84-.51-23.09-4.38Z"/>
  </g>
  <g>
    <path d="M267.55,645.23c3.58-3.61,9.36-3.55,14.12-4.38h253.08c18.63-1.33,26.02,19.83,9.51,28.59-87.94,2.63-176.43,1.7-264.58,2.49-13.61.53-21.7-17.04-12.13-26.69Z"/>
    <path d="M276.95,697.12l170.75-.23c20.39,2.05,20,27.69-3,29.98h-164.99c-18.69-2.09-20.9-25.39-2.76-29.75Z"/>
  </g>
  <path d="M264.22,556.88l2,.5c.81-2.06-2.03-1.23-2.08-2.04-.38-6.87,9.47-12.49,15.58-12.44,47.74,3.13,100.93-4.21,148.03-.05,19.74,1.74,19.75,26.78-3.05,29.03-45.08,4.46-97.21-3.35-143.03.05-10.67-.8-16.02-3.85-17.45-15.05Z"/>
  <g>
    <path d="M464.75,141.4c24.26-.15,53.2-2.59,77-.55,11.35.97,17.29,7.5,15.02,19.09-1.31,6.7-7.48,10.2-14.05,10.94-11.01,1.24-25.44-.22-36.97.06-49.59,1.17-99.32,1.38-149.08,1.9-23.42.24-55.27,3.83-77.98,1.07-11.37-1.39-19.22-13.05-12.48-23.53,6.07-9.44,19.89-6.06,29.58-6.49,56.01-2.45,112.74-2.15,168.96-2.49Z"/>
    <path d="M276.96,199.13l150.76-.24c8.66,1.25,13.49,5.26,12.52,14.52-1.1,10.56-11.84,12.84-20.54,13.47-45.6,3.3-94.99-2.45-140.99.01-17.45-1.36-19.77-24.95-1.76-27.76Z"/>
  </g>
  <rect x="146.22" y="617.89" width="1" height="46"/>
</svg>