<?xml version="1.0" encoding="UTF-8"?>
<svg id="Layer_1" data-name="Layer 1" xmlns="http://www.w3.org/2000/svg" viewBox="0 0 783.69 589.88">
  <path d="M585.6,456.71c2.13,9.85,2.82,20,.4,29.9l1.2,1.95,46.37-6.42c-2.98,5.6-11.19,8.13-17.03,9.97-10.85,3.42-22.92,5.04-33.93,8.07l-5.03,11.46,79.48-17.03,2.51,1.52c-7.04,8.06-18.29,11.57-28.23,14.78-20.04,6.47-44.71,8.04-62.8,14.2-3.73,1.27-9.83,6.78-12.97,9.52l103.49-18.01c1.2,4.6-9.25,8.55-12.96,10.04-52.19,20.95-116.68,23.78-170.73,38.27-22.57,6.05-42.83,14.65-66.59,19.41-8.44,1.69-35.81,6.92-42.57,5.16-1.1-.29-2.24-1.39-.65-2.37l72-22.48c-11.5.63-22.98,2.27-34.45,3.01-6.42.42-13.71-.73-19.97.06-24.12,3.04-48.75,13.95-75.04,14.96-2.05.08-10.52.52-10.52-1.54.42-.67,1.01-.95,1.67-1.31,6.93-3.8,39.82-11.25,49.07-12.93,2.41-.44,4.82-.26,7.24-.27.18-1.46-2.62-1.8-3.58-1.9-5.78-.6-11.78-.43-17.77-1.23-7.51-1.01-24.58-6.04-30.1-5.89-6.71.17-19.8,5.19-27.36,6.73-8.88,1.8-18.01,3.71-26.96,5.04-6.51.96-13.94,2.54-20.22,1.26l17.99-6.49,37.01-8.5c-3.6-3.33-10.29-3.78-14.96-5.53-3.28-1.23-11.7-5.98-13.76-6.26-4.11-.56-36.64,8.16-44.05,9.53-12.45,2.3-25.7,4.93-38.23,5.26,4.2-4.47,13.1-6.3,19.23-8.26,15.72-5.01,31.98-8.4,47.75-13.25.73-.75,1.52-.69.49-1.47-4.68-3.54-10.16-5.93-14.18-10.87-29.19,7.63-58.97,13.55-89.29,13.85-.42-2.26.1-1.6,1.27-2.23,3.94-2.14,12.93-3.98,17.72-5.27,20.09-5.39,40.18-8.46,60.47-12.53,1.18-.24,1.84-.41,2.54-1.49-13.43-16.6-18.78-37.21-15.07-58.38C107.06,413.8,45.18,327.18,16.08,225.65,7.7,196.39-6.72,138.44,3.56,110.13,27.41,44.49,158.4,20.38,219.22,11.8c118.09-16.67,242.96-15.69,360.69,3.02,54.9,8.72,168.65,32.12,196.21,85.79,15.48,30.13,3.8,87.22-4.83,119.26-26.27,97.52-94.47,191.56-185.7,236.84ZM359.38,26.95c-65.34,3.25-130.88,7.87-194.98,21.02-37.36,7.67-115.59,26.75-133.52,63.48-7.68,15.74-3.5,20.05,8.7,30.72,49.6,43.39,179.36,62.96,244.52,68.48,105.01,8.9,222.44,5.93,325.69-15.3,35.68-7.34,120.71-28.67,139.63-61.37,10.59-18.31-12.2-38.15-26.29-47.35-63.23-41.27-198.48-55.43-273.99-59.01l-89.75-.66ZM752.58,173.66c-1.22-.97-13.04,7.87-15.33,9.16-76.76,43.16-192.98,54.24-280.16,58.84-108.89,5.75-233.34-2-338.51-32.51-30.55-8.86-63.49-20.68-88.51-40.49-1.9-.59,3.4,20.42,5.55,22.45,3.72,3.51,19.99,10.72,25.6,13.4,4.94,2.36,41.38,17.06,41.34,19.64-.83.77-1.54,2.04-2.71,2.35-2.66.71-16.75-3.11-20.49-4.14-13.43-3.68-27.65-9.05-39.3-16.7l-1.43,1.43,8.2,22.32c14.03,7.29,30.12,12.89,43.77,20.73,2.62,1.51,17.06,9.26,10.03,11.02-8.5,2.13-18.82-3.08-26.72-6.33-7.24-2.97-15.4-6.83-21.83-11.17-1.01.11-.49,1.55-.28,2.28.56,2.01,8.92,21.36,9.73,22.27,1.54,1.74,15.7,7.44,19.36,9.64,2.32,1.39,12.28,7.42,10.26,10.84-3.01,5.1-17.71-5.88-22.56-4.54,39.9,77.75,104.66,135.93,186.75,166.25,67.26,24.84,151.32,28.94,221.26,13.76,36.02-7.82,70.1-21.24,102.98-37.52.26-1.71-2.38-1.06-3.47-.97-6.09.51-12.82,3.02-19.15,3.86-4.13.55-27.74,3.09-29.37,1.12.07-6.31,11.81-7.34,16.99-8.5,17.89-4,42.72-5.78,59.24-11.76,8.84-3.2,28.18-18.83,35.3-25.7.84-.81,4.49-3.99,3.46-5.03-14.78,5.99-31.97,10.82-47.76,13.73-9.48,1.75-22.37,4.76-31.23,1.77,2.45-3.15,6.43-3.8,10-5,22.5-7.54,47.87-10.71,70.76-18.24,13.36-4.4,17.27-10.5,26.21-20.79l12.02-16.47c-12.35,5.44-24.73,11.03-37.77,14.72-7.92,2.24-23.07,6.21-30.87,6.24-2.21,0-2.98-.79-4.33-2.46-.02-4.51,39.54-15.32,45.52-17.46,7.4-2.65,31.37-10.82,36.39-14.61,2.11-1.6,8.99-13.02,10.88-16.12,1.12-1.83,8.9-14.53,8.18-15.31-19.59,11.01-41.9,20.33-63.77,25.72-8.46,2.08-17.57,4.53-26.22,3.27-1.09-4.65,4.38-6.86,8.02-8.48,22.27-9.9,49.48-15.88,72.96-26.04,3.38-1.46,12.1-4.78,14.4-6.6s7.89-14,9.49-17.51c1.83-4,3.63-8.23,5.14-12.35-8.94,4.44-18.11,8.5-27.48,12.01-26.34,9.87-55.65,17.61-83.85,18.03l-1.61-2.56c.11-2.98,42.39-13.29,47.94-14.99,12.61-3.87,64.94-20.02,70.88-29.12,3.49-5.35,5.39-15.77,8.14-21.86l-26.49,11.51c-21.25,7.9-56.7,17.72-79.06,16.03-1.79-.14-3.24.28-4.43-1.54.03-1.74,10.93-5.05,13.19-5.79,16.03-5.26,32.76-8.77,48.75-14.25,17.93-6.14,35.77-13.57,52.05-23.2l3.99-18.25ZM563.58,468.67c-24.72,8.82-49.29,17.7-74.99,23.5-89.41,20.18-176.49,13.96-260.32-22.71-.81-.35-2.1-1.74-2.71-.29,8.45,35.37,42.93,51.18,75,60,52.72,14.51,118.76,15.32,172.2,4.17,27.33-5.7,56.92-14.85,76.81-35.19.16-.75-.97-.65-1.48-.48-2.59.84-8.61,5.26-12.16,6.84-24.59,10.97-59.95,19.83-86.86,20.22-3.34.05-6.64-.93-9.5-2.58,2.26-2.93,5.89-3.71,9.24-4.76,11.93-3.75,25.41-5.78,37.76-9.24,27.16-7.62,58.53-17.12,77-39.49Z"/>
  <path d="M609.45,554.53c-2.54,4.45-46.92,14.07-54.68,15.81-22.84,5.15-46.93,10.13-70.01,13.99-9.53,1.6-19.58,4.03-29.19,3.31-.56-2.9.87-1.59,2.2-2.25,26.72-13.23,88.74-25.1,119.61-30.43,7.77-1.34,21.47-4.29,28.74-4.36,1.17-.01,2.18.03,3,1l.31,2.93Z"/>
  <path d="M192.38,501.95c3.39-.19,5.87-1.26,8.18,2.2.03,4.89-37.34,11.98-42.96,13.02-15.2,2.81-31.11,5.38-46.53,6.47-3.14.22-15.74,1.26-17.88.93-1.85-.29-3.39-.91-4.59-2.42-.01-.98,10.88-3.95,12.61-4.37,24.56-5.92,66.55-14.48,91.17-15.83Z"/>
</svg>